<svg width="163" height="152" viewBox="0 0 163 152" fill="none" xmlns="http://www.w3.org/2000/svg">
<path d="M144.364 7.70737C136.65 5.32577 87.2269 -8.41227 19.8545 7.76867C19.1628 7.93503 18.6112 8.47352 18.4317 9.16523L0.0617702 80.2414C-0.104592 80.8762 0.0705274 81.5548 0.521457 82.032L38.4565 122.292C39.3014 123.189 40.7593 123.067 41.4422 122.042L45.7808 115.537C46.3018 114.753 46.1792 113.702 45.4831 113.063L12.4689 82.7412C12.4689 82.7412 5.48606 77.1549 11.5364 71.573C17.1095 66.4289 40.8468 32.8544 44.555 27.5877C44.8702 27.1411 45.3561 26.8566 45.899 26.7953L60.7709 25.0966C61.1387 25.0528 61.4889 24.9084 61.7735 24.672L71.6458 16.5202C72.2324 16.0386 73.0467 15.9467 73.7253 16.2838L90.6812 24.8077C90.9745 24.9565 91.2984 25.0222 91.6224 25.0091L122.417 23.6694C122.942 23.6475 123.45 23.8402 123.827 24.2035L147.695 47.2053C148.356 47.8401 148.47 48.8558 147.976 49.6263L133.121 72.545C132.394 73.6701 130.761 73.7182 129.969 72.6369L126.147 67.4227C125.556 66.6128 124.44 66.3983 123.59 66.9324L119.633 69.4059C118.608 70.0451 117.255 69.5898 116.826 68.4603L115.128 63.9729C114.734 62.9266 113.525 62.4406 112.514 62.9222L107.475 65.3169C106.297 65.8773 104.914 65.1199 104.752 63.8241L104.432 61.2717C104.283 60.0897 103.106 59.3279 101.968 59.6781L96.8541 61.2586C95.6239 61.6394 94.3762 60.7201 94.3762 59.4286C94.3762 58.0933 93.0452 57.1695 91.7975 57.6336L80.857 61.6876C80.2835 61.8977 79.6487 61.8277 79.1365 61.4906L69.3167 55.0156C68.7038 54.6084 67.9114 54.5953 67.2766 54.9718L64.2164 56.8106C62.9424 57.5723 62.9862 59.433 64.2952 60.1378L73.7779 65.2381C74.1237 65.4264 74.5221 65.5008 74.9117 65.4526L83.567 64.4194C84.8016 64.2706 85.8479 65.3213 85.6946 66.5559L84.6658 74.7996C84.4601 76.437 86.2857 77.5489 87.6472 76.6164L87.888 76.4501C88.9956 75.6927 90.5235 76.2793 90.8344 77.5883L91.3991 79.9656C91.7143 81.2877 93.2685 81.8744 94.3762 81.082L96.0091 79.913C97.178 79.0769 98.8154 79.7773 99.0168 81.2002L99.5027 84.6106C99.7085 86.0597 101.403 86.7514 102.563 85.8583L103.754 84.9433C104.831 84.1115 106.411 84.6413 106.766 85.959L108.18 91.1425C108.504 92.3246 109.835 92.9025 110.916 92.3333L114.944 90.2144C116.196 89.5577 117.702 90.4333 117.75 91.8474L118.078 102.009C118.1 102.748 117.698 103.436 117.041 103.773L102.721 111.137C102.16 111.426 101.499 111.417 100.943 111.124L53.9238 86.0466C53.3284 85.727 52.9431 85.1184 52.9125 84.4442L52.1026 66.6216C52.0632 65.7109 51.3846 64.9536 50.4827 64.8178L47.8297 64.4107C46.8052 64.2531 45.8377 64.9404 45.6538 65.9649L42.9264 81.1476C42.8038 81.8437 43.0708 82.5486 43.6225 82.9864L70.363 104.119C71.0723 104.679 71.2912 105.655 70.8928 106.465L57.8202 133.031C57.4262 133.832 57.6363 134.8 58.3324 135.36L78.2828 151.571C78.9832 152.141 79.9902 152.145 80.695 151.571L161.871 85.8145C162.436 85.3549 162.694 84.615 162.532 83.9057L145.655 9.1127C145.502 8.44725 145.016 7.90876 144.364 7.70737Z" fill="#D05B50"/>
</svg>
